<svg width="43" height="56" viewBox="0 0 43 56" fill="none" xmlns="http://www.w3.org/2000/svg">
<path d="M42.0337 2C42.0337 1.17157 41.3621 0.5 40.5337 0.5C39.7053 0.5 39.0337 1.17157 39.0337 2L42.0337 2ZM39.0337 53.1796L39.0337 54.6796L42.0337 54.6796L42.0337 53.1796L39.0337 53.1796ZM39.0337 2L39.0337 53.1796L42.0337 53.1796L42.0337 2L39.0337 2Z" fill="black"/>
<path d="M41.8302 53.2336C42.5039 53.7157 42.4727 54.4497 41.7606 54.8729C41.0484 55.2962 39.925 55.2484 39.2513 54.7663L41.8302 53.2336ZM20.6869 41.4806L19.4671 40.6076L22.046 39.0749L23.2658 39.9479L20.6869 41.4806ZM39.2513 54.7663L20.6869 41.4806L23.2658 39.9479L41.8302 53.2336L39.2513 54.7663Z" fill="black"/>
<path d="M0.596191 2C0.596191 1.17157 1.26776 0.5 2.09619 0.5C2.92462 0.5 3.59619 1.17157 3.59619 2L0.596191 2ZM3.59619 53.1796L3.59619 54.6796L0.596195 54.6796L0.596195 53.1796L3.59619 53.1796ZM3.59619 2L3.59619 53.1796L0.596195 53.1796L0.596191 2L3.59619 2Z" fill="black"/>
<path d="M2.0896 53.9999L21.3149 40.1234" stroke="black" stroke-width="3" stroke-linecap="round"/>
</svg>
