<svg width="38" height="38" viewBox="0 0 38 38" fill="none" xmlns="http://www.w3.org/2000/svg">
<path d="M15.4854 6.31614C15.6888 5.40106 16.5004 4.75 17.4378 4.75H20.5625C21.4999 4.75 22.3115 5.40106 22.5148 6.31614L23.0392 8.67564C24.086 9.08547 25.0552 9.64989 25.9188 10.3408L28.2273 9.61424C29.1215 9.33281 30.0911 9.71017 30.5598 10.522L32.1221 13.228C32.5908 14.0398 32.4328 15.0682 31.742 15.7019L29.9595 17.3369C30.0412 17.8794 30.0835 18.4347 30.0835 19C30.0835 19.5652 30.0412 20.1206 29.9595 20.6631L31.742 22.2981C32.4328 22.9318 32.5909 23.9602 32.1222 24.772L30.5598 27.478C30.0911 28.2898 29.1215 28.6672 28.2273 28.3857L25.9188 27.6592C25.0552 28.3501 24.086 28.9145 23.0392 29.3244L22.5148 31.6839C22.3115 32.5989 21.4999 33.25 20.5625 33.25H17.4378C16.5004 33.25 15.6888 32.5989 15.4854 31.6839L14.9611 29.3244C13.9143 28.9145 12.9451 28.3501 12.0814 27.6591L9.77293 28.3857C8.87877 28.6672 7.90912 28.2898 7.44042 27.478L5.8781 24.772C5.4094 23.9602 5.56743 22.9317 6.25823 22.2981L8.04075 20.6631C7.95912 20.1206 7.91681 19.5652 7.91681 19C7.91681 18.4348 7.95913 17.8794 8.04076 17.3369L6.25825 15.7019C5.56745 15.0682 5.40942 14.0398 5.87812 13.228L7.44044 10.522C7.90914 9.71018 8.87879 9.33282 9.77295 9.61425L12.0814 10.3408C12.9451 9.6499 13.9143 9.08547 14.9611 8.67564L15.4854 6.31614Z" stroke="black" stroke-width="2" stroke-linecap="round" stroke-linejoin="round"/>
<path d="M20.5834 19C20.5834 19.8745 19.8746 20.5833 19.0001 20.5833C18.1257 20.5833 17.4168 19.8745 17.4168 19C17.4168 18.1255 18.1257 17.4167 19.0001 17.4167C19.8746 17.4167 20.5834 18.1255 20.5834 19Z" stroke="black" stroke-width="2" stroke-linecap="round" stroke-linejoin="round"/>
</svg>
